<svg xmlns="http://www.w3.org/2000/svg" width="8" height="26" viewBox="0 0 8 26">
    <g fill="none" fill-rule="evenodd">
        <g>
            <g>
                <g>
                    <g>
                        <g>
                            <g>
                                <g>
                                    <g fill="#333">
                                        <path d="M1.75 3.5c.967 0 1.75-.783 1.75-1.75C3.5.772 2.717 0 1.75 0 .772 0 0 .772 0 1.75 0 2.717.772 3.5 1.75 3.5zM1.75 11.5c.967 0 1.75-.783 1.75-1.75C3.5 8.772 2.717 8 1.75 8 .772 8 0 8.772 0 9.75c0 .967.772 1.75 1.75 1.75z" transform="translate(-76.000000, -1109.000000) translate(0.000000, 225.000000) translate(0.000000, 800.000000) translate(0.000000, 16.000000) translate(16.000000, 68.000000) translate(30.000000, 0.000000) translate(30.000000, 0.000000) translate(2.000000, 7.000000)"/>
                                    </g>
                                    <path d="M0 0H8V26H0z" transform="translate(-76.000000, -1109.000000) translate(0.000000, 225.000000) translate(0.000000, 800.000000) translate(0.000000, 16.000000) translate(16.000000, 68.000000) translate(30.000000, 0.000000) translate(30.000000, 0.000000)"/>
                                </g>
                            </g>
                        </g>
                    </g>
                </g>
            </g>
        </g>
    </g>
</svg>
